<?xml version="1.0" encoding="UTF-8"?>
<!DOCTYPE svg PUBLIC "-//W3C//DTD SVG 1.1//EN" "http://www.w3.org/Graphics/SVG/1.1/DTD/svg11.dtd">
<!-- Creator: CorelDRAW X5 -->
<svg xmlns="http://www.w3.org/2000/svg" xml:space="preserve" width="210mm" height="297mm" style="shape-rendering:geometricPrecision; text-rendering:geometricPrecision; image-rendering:optimizeQuality; fill-rule:evenodd; clip-rule:evenodd"
viewBox="0 0 21000 29700"
 xmlns:xlink="http://www.w3.org/1999/xlink">
 <defs>
  <style type="text/css">
   <![CDATA[
    .fil0 {fill:#D9DADA}
   ]]>
  </style>
 </defs>
 <g id="Слой_x0020_1">
  <metadata id="CorelCorpID_0Corel-Layer"/>
  <g id="_244851984">
   <path class="fil0" d="M8371 11668c346,0 765,72 1257,215 492,143 818,215 980,215 208,0 547,-81 1018,-242 471,-161 879,-242 1226,-242 568,0 1073,152 1516,457 249,175 496,413 741,713 -369,314 -639,593 -810,838 -309,443 -464,933 -464,1468 0,586 164,1115 492,1586 328,471 702,769 1122,893 -176,568 -466,1161 -873,1780 -614,928 -1224,1392 -1828,1392 -240,0 -571,-76 -994,-229 -422,-152 -779,-228 -1070,-228 -291,0 -629,80 -1014,239 -386,159 -698,239 -938,239 -725,0 -1436,-614 -2133,-1842 -697,-1214 -1045,-2405 -1045,-3573 0,-1085 267,-1969 800,-2652 533,-683 1206,-1025 2019,-1025z"/>
   <path class="fil0" d="M12733 8940c18,60 30,113 35,159 5,46 7,92 7,138 0,296 -69,619 -208,969 -138,351 -358,676 -658,976 -259,254 -515,425 -769,512 -162,51 -406,90 -734,118 9,-702 193,-1309 551,-1821 358,-512 950,-863 1776,-1053z"/>
  </g>
 </g>
</svg>
